HIERARCHY
ROOT Hips
{
	OFFSET 0.000000 0.000000 0.000000
	CHANNELS 6 Xposition Yposition Zposition Zrotation Yrotation Xrotation 
	JOINT LHipJoint
	{
		OFFSET 0.000000 0.000000 0.000000
		CHANNELS 3 Zrotation Yrotation Xrotation
		JOINT LeftUpLeg
		{
			OFFSET 1.363060 -1.794630 0.839290
			CHANNELS 3 Zrotation Yrotation Xrotation
			JOINT LeftLeg
			{
				OFFSET 2.448110 -6.726130 0.000000
				CHANNELS 3 Zrotation Yrotation Xrotation
				JOINT LeftFoot
				{
					OFFSET 2.562200 -7.039590 0.000000
					CHANNELS 3 Zrotation Yrotation Xrotation
					JOINT LeftToeBase
					{
						OFFSET 0.157640 -0.433110 2.322550
						CHANNELS 3 Zrotation Yrotation Xrotation
						End Site
						{
							OFFSET 0.000000 0.000000 0.000000
						}
					}
				}
			}
		}
	}
	JOINT RHipJoint
	{
		OFFSET 0.000000 0.000000 0.000000
		CHANNELS 3 Zrotation Yrotation Xrotation
		JOINT RightUpLeg
		{
			OFFSET -1.305520 -1.794630 0.839290
			CHANNELS 3 Zrotation Yrotation Xrotation
			JOINT RightLeg
			{
				OFFSET -2.542530 -6.985550 0.000000
				CHANNELS 3 Zrotation Yrotation Xrotation
				JOINT RightFoot
				{
					OFFSET -2.568260 -7.056230 0.000000
					CHANNELS 3 Zrotation Yrotation Xrotation
					JOINT RightToeBase
					{
						OFFSET -0.164730 -0.452590 2.363150
						CHANNELS 3 Zrotation Yrotation Xrotation
						End Site
						{
							OFFSET 0.000000 0.000000 0.000000
						}
					}
				}
			}
		}
	}
	JOINT LowerBack
	{
		OFFSET 0.000000 0.000000 0.000000
		CHANNELS 3 Zrotation Yrotation Xrotation
		JOINT Spine
		{
			OFFSET 0.028270 2.035590 -0.193380
			CHANNELS 3 Zrotation Yrotation Xrotation
			JOINT Spine1
			{
				OFFSET 0.056720 2.048850 -0.042750
				CHANNELS 3 Zrotation Yrotation Xrotation
				JOINT Neck
				{
					OFFSET 0.000000 0.000000 0.000000
					CHANNELS 3 Zrotation Yrotation Xrotation
					JOINT Neck1
					{
						OFFSET -0.054170 1.746240 0.172020
						CHANNELS 3 Zrotation Yrotation Xrotation
						JOINT Head
						{
							OFFSET 0.104070 1.761360 -0.123970
							CHANNELS 3 Zrotation Yrotation Xrotation
							End Site
							{
								OFFSET 0.000000 0.000000 0.000000
							}
						}
					}
				}
				JOINT LeftShoulder
				{
					OFFSET 0.000000 0.000000 0.000000
					CHANNELS 3 Zrotation Yrotation Xrotation
					JOINT LeftArm
					{
						OFFSET 3.362410 1.200890 -0.311210
						CHANNELS 3 Zrotation Yrotation Xrotation
						JOINT LeftForeArm
						{
							OFFSET 4.983000 -0.000000 -0.000000
							CHANNELS 3 Zrotation Yrotation Xrotation
							JOINT LeftHand
							{
								OFFSET 3.483560 -0.000000 -0.000000
								CHANNELS 3 Zrotation Yrotation Xrotation
								JOINT LeftFingerBase
								{
									OFFSET 0.000000 0.000000 0.000000
									CHANNELS 3 Zrotation Yrotation Xrotation
									JOINT LeftHandIndex1
									{
										OFFSET 0.715260 -0.000000 -0.000000
										CHANNELS 3 Zrotation Yrotation Xrotation
										End Site
										{
											OFFSET 0.000000 0.000000 0.000000
										}
									}
								}
								JOINT LThumb
								{
									OFFSET 0.000000 0.000000 0.000000
									CHANNELS 3 Zrotation Yrotation Xrotation
									End Site
									{
										OFFSET 0.000000 0.000000 0.000000
									}
								}
							}
						}
					}
				}
				JOINT RightShoulder
				{
					OFFSET 0.000000 0.000000 0.000000
					CHANNELS 3 Zrotation Yrotation Xrotation
					JOINT RightArm
					{
						OFFSET -3.136600 1.374050 -0.404650
						CHANNELS 3 Zrotation Yrotation Xrotation
						JOINT RightForeArm
						{
							OFFSET -5.241900 -0.000000 -0.000000
							CHANNELS 3 Zrotation Yrotation Xrotation
							JOINT RightHand
							{
								OFFSET -3.444170 -0.000000 -0.000000
								CHANNELS 3 Zrotation Yrotation Xrotation
								JOINT RightFingerBase
								{
									OFFSET 0.000000 0.000000 0.000000
									CHANNELS 3 Zrotation Yrotation Xrotation
									JOINT RightHandIndex1
									{
										OFFSET -0.622530 -0.000000 -0.000000
										CHANNELS 3 Zrotation Yrotation Xrotation
										End Site
										{
											OFFSET 0.000000 0.000000 0.000000
										}
									}
								}
								JOINT RThumb
								{
									OFFSET 0.000000 0.000000 0.000000
									CHANNELS 3 Zrotation Yrotation Xrotation
									End Site
									{
										OFFSET 0.000000 0.000000 0.000000
									}
								}
							}
						}
					}
				}
			}
		}
	}
}
MOTION
Frames: 11
Frame Time: 0.008333
0.745723 17.414564 1.735056 8.351939 -48.327404 9.997728 -9.051589 1.994453 8.378563 -4.347353 -19.083509 -17.174455 -2.568617 -1.663445 -4.545961 -0.138967 2.279008 9.159860 1.236600 -0.000001 -49.059800 11.462171 -2.750177 -2.231618 2.842807 -31.775902 -6.780710 2.003263 1.178815 -5.166350 -3.066574 -21.165677 10.384454 -7.850200 -0.000001 -70.738700 -1.896519 2.052325 -7.988582 0.352832 2.358240 -3.991416 2.546977 2.161724 0.450850 -9.834920 0.190814 -6.416976 -1.903270 -0.159627 0.378058 0.000000 0.000000 0.000000 6.040966 11.291786 -2.480610 -89.924576 -6.654699 24.713029 175.895052 -38.835029 179.568107 28.677903 -48.846161 -14.354287 -0.484234 2.687754 -0.000000 0.000000 0.000000 0.000000 0.000000 0.000000 0.000000 -16.417569 5.024891 2.519749 1.938676 36.051125 -44.443271 -0.743792 13.615791 -0.059595 -9.250682 0.707889 -0.090892 0.232134 -0.386379 -0.000000 0.000000 0.000000 0.000000 0.000000 0.000000 0.000000 
0.753480 17.410457 1.747222 8.194476 -48.163483 9.989465 -9.067635 1.996520 8.364888 -4.268561 -19.285026 -16.939890 -2.536255 -1.645797 -4.573187 -0.120066 2.336962 8.973802 1.235900 0.000000 -48.978300 11.409900 -2.706787 -2.298958 2.791097 -31.571269 -6.715604 1.949092 1.124437 -4.451532 -3.151089 -21.547254 10.098951 -7.903000 0.000000 -70.788400 -1.809876 1.909308 -7.873893 0.323306 2.194744 -3.980402 2.189293 2.017449 0.422933 -9.223851 0.338053 -6.276759 -2.011808 -0.169037 0.411985 0.000000 0.000000 0.000000 5.099871 11.773264 -2.338455 -88.857057 -6.962333 26.181113 176.427590 -39.663734 179.590126 30.926828 -49.224562 -15.663117 -0.585203 2.714536 -0.000000 0.000000 0.000000 0.000000 0.000000 0.000000 0.000000 -15.475401 5.017122 2.198210 3.413633 35.767089 -43.049341 -0.989846 16.926172 -0.075291 -11.033183 2.807681 -0.321928 0.237607 -0.453759 -0.000000 0.000000 0.000000 0.000000 0.000000 0.000000 0.000000 
0.759640 17.406834 1.758812 8.011785 -48.023104 9.999645 -9.064659 2.004049 8.352567 -4.212680 -19.394624 -16.711512 -2.517934 -1.638827 -4.623620 -0.110025 2.356848 8.821265 1.229000 0.000001 -48.919400 11.382369 -2.676926 -2.334772 2.770439 -31.373101 -6.727421 1.899651 1.067629 -3.709862 -3.231817 -21.888658 9.803419 -7.932300 -0.000000 -70.809300 -1.844576 1.802570 -7.789356 0.286684 2.081741 -3.990950 1.977795 1.915641 0.358977 -8.604802 0.282859 -6.097040 -2.147005 -0.181138 0.458131 0.000000 0.000000 0.000000 5.426318 11.738033 -2.307190 -88.554383 -7.037268 25.958474 176.478526 -39.665191 179.592081 31.531671 -48.627139 -15.776138 -0.624956 2.707371 -0.000000 0.000000 0.000000 0.000000 0.000000 0.000000 0.000000 -14.400808 4.866748 1.945427 4.817063 35.388364 -41.604970 -1.162328 20.429472 -0.088323 -12.205050 3.830750 -0.471253 0.232613 -0.492278 -0.000000 0.000000 0.000000 0.000000 0.000000 0.000000 0.000000 
0.764019 17.403647 1.770165 7.837265 -47.915059 10.022149 -9.058876 2.012522 8.337870 -4.180319 -19.425092 -16.504633 -2.508203 -1.638293 -4.694064 -0.106908 2.342270 8.701666 1.216000 0.000000 -48.882801 11.362507 -2.652986 -2.354752 2.773419 -31.195345 -6.811614 1.857901 1.010427 -2.962964 -3.306728 -22.187765 9.514983 -7.944000 0.000000 -70.855599 -1.902492 1.722028 -7.724941 0.241410 1.998291 -3.996624 1.759755 1.842345 0.332076 -7.994554 0.011476 -5.973608 -2.275124 -0.192051 0.489134 0.000000 0.000000 0.000000 5.801276 11.715096 -2.298351 -88.268293 -7.214593 25.850158 176.563520 -39.739275 179.594913 31.859282 -48.270513 -15.825371 -0.651531 2.706469 -0.000000 0.000000 0.000000 0.000000 0.000000 0.000000 0.000000 -13.316713 4.515387 1.700081 6.321964 35.039496 -40.196820 -1.293255 24.216861 -0.098012 -12.884123 3.986165 -0.516477 0.219217 -0.509730 -0.000000 0.000000 0.000000 0.000000 0.000000 0.000000 0.000000 
0.766243 17.401017 1.781787 7.629930 -47.800830 10.070102 -9.027955 2.030413 8.336509 -4.159329 -19.398722 -16.316221 -2.512037 -1.648692 -4.781260 -0.112363 2.293005 8.616482 1.198400 -0.000000 -48.864900 11.373511 -2.647810 -2.343354 2.805373 -31.057729 -6.953721 1.824216 0.954829 -2.235514 -3.373512 -22.443089 9.247492 -7.942300 0.000000 -70.914500 -2.100959 1.673398 -7.704620 0.184295 1.963643 -4.037730 1.684637 1.812478 0.215391 -7.328407 -0.400242 -5.759775 -2.410992 -0.204953 0.546680 0.000000 0.000000 0.000000 7.472579 11.040175 -2.420675 -88.888054 -7.047573 23.527743 176.327132 -39.344598 179.582773 29.770874 -48.211271 -14.724389 -0.561040 2.691817 -0.000000 0.000000 0.000000 0.000000 0.000000 0.000000 0.000000 -12.102885 4.082130 1.533974 7.836680 34.492613 -38.757629 -1.355033 28.244927 -0.104288 -13.155271 3.446586 -0.463913 0.204125 -0.514183 -0.000000 0.000000 0.000000 0.000000 0.000000 0.000000 0.000000 
0.766411 17.398744 1.793966 7.474470 -47.729971 10.120699 -9.015216 2.046738 8.334269 -4.154920 -19.336067 -16.166931 -2.514574 -1.657661 -4.886572 -0.119312 2.229026 8.559544 1.177900 -0.000000 -48.865200 11.367823 -2.634758 -2.340119 2.845449 -30.966192 -7.148820 1.802361 0.903019 -1.533054 -3.428803 -22.638583 8.995945 -7.921999 -0.000000 -70.931900 -2.190229 1.616223 -7.696015 0.130460 1.908501 -4.045807 1.470163 1.765704 0.225102 -6.742224 -0.958756 -5.728778 -2.528991 -0.214212 0.553534 0.000000 0.000000 0.000000 7.935119 10.995580 -2.428305 -88.648932 -7.268644 23.516213 176.465713 -39.460873 179.587852 29.482679 -48.241720 -14.593490 -0.561291 2.703617 -0.000000 0.000000 0.000000 0.000000 0.000000 0.000000 0.000000 -11.047345 3.479164 1.288319 9.580572 34.139104 -37.426013 -1.407680 32.603409 -0.107330 -13.150121 2.452678 -0.345941 0.182538 -0.508232 -0.000000 0.000000 0.000000 0.000000 0.000000 0.000000 0.000000 
0.764439 17.396829 1.807036 7.332709 -47.669719 10.181808 -8.999166 2.066901 8.342391 -4.161864 -19.264417 -16.154874 -2.514091 -1.656485 -4.784661 -0.132794 2.146854 8.403320 1.155499 0.000000 -48.882100 11.366613 -2.624706 -2.330308 2.895514 -30.928151 -7.376771 1.789341 0.856636 -0.879127 -3.473038 -22.791913 8.789144 -7.900700 0.000000 -71.004399 -2.279000 1.555051 -7.717608 0.079236 1.850164 -4.059648 1.268103 1.714945 0.236471 -6.186041 -1.542545 -5.725559 -2.640199 -0.222785 0.553483 0.000000 0.000000 0.000000 8.405137 10.947872 -2.425893 -88.419100 -7.463248 23.559522 176.602509 -39.539287 179.593135 29.100205 -48.292472 -14.421799 -0.558813 2.718150 -0.000000 0.000000 0.000000 0.000000 0.000000 0.000000 0.000000 -10.064414 2.865515 1.035220 11.496150 33.737249 -36.174415 -1.421434 37.205115 -0.107335 -12.908698 1.175076 -0.191272 0.159004 -0.497358 -0.000000 0.000000 0.000000 0.000000 0.000000 0.000000 0.000000 
0.760343 17.395157 1.821207 7.203557 -47.614289 10.253490 -8.979880 2.094350 8.365596 -4.169036 -19.197353 -16.186238 -2.514530 -1.655045 -4.664173 -0.147682 2.056987 8.249435 1.132400 0.000000 -48.906400 11.369583 -2.617321 -2.315185 2.952873 -30.941354 -7.623926 1.784987 0.816850 -0.278791 -3.505418 -22.895951 8.608583 -7.869500 -0.000000 -71.042699 -2.367732 1.480729 -7.771473 0.030262 1.779019 -4.080030 1.073715 1.650696 0.246767 -5.635611 -2.123165 -5.741277 -2.751520 -0.231256 0.548675 0.000000 0.000000 0.000000 8.892605 10.887289 -2.411102 -88.219334 -7.594106 23.625748 176.729639 -39.570487 179.598466 28.669695 -48.367004 -14.233382 -0.554635 2.735018 -0.000000 0.000000 0.000000 0.000000 0.000000 0.000000 0.000000 -9.100953 2.264406 0.779267 13.472254 33.325347 -34.964853 -1.394401 41.909916 -0.105180 -12.551503 -0.172700 -0.034405 0.135907 -0.484881 -0.000000 0.000000 0.000000 0.000000 0.000000 0.000000 0.000000 
0.754549 17.393575 1.836601 7.085950 -47.562281 10.331504 -8.958598 2.129081 8.404474 -4.171635 -19.151252 -16.241889 -2.514692 -1.653500 -4.549213 -0.161831 1.969592 8.105342 1.110599 -0.000000 -48.937600 11.374893 -2.610873 -2.298474 3.010853 -31.002442 -7.876581 1.787095 0.783473 0.263126 -3.527031 -22.962607 8.469308 -7.839400 -0.000000 -71.111500 -2.448526 1.387124 -7.853175 -0.013767 1.688037 -4.106136 0.888980 1.565842 0.253847 -5.098083 -2.668689 -5.766437 -2.859859 -0.239483 0.541685 0.000000 0.000000 0.000000 9.375566 10.822509 -2.382133 -88.042201 -7.653669 23.693657 176.843508 -39.553184 179.603666 28.250337 -48.430503 -14.047124 -0.551081 2.752770 -0.000000 0.000000 0.000000 0.000000 0.000000 0.000000 0.000000 -8.185998 1.702575 0.517059 15.516500 32.932985 -33.807665 -1.332826 46.603207 -0.101814 -12.153410 -1.374325 0.097059 0.114204 -0.474132 -0.000000 0.000000 0.000000 0.000000 0.000000 0.000000 0.000000 
0.747238 17.391918 1.853178 6.980180 -47.514197 10.413775 -8.935609 2.170793 8.458591 -4.165394 -19.137262 -16.313378 -2.513321 -1.651503 -4.442023 -0.173457 1.893736 7.965145 1.091800 0.000001 -48.970000 11.381702 -2.604533 -2.281454 3.065747 -31.100701 -8.123213 1.793709 0.756415 0.747100 -3.539072 -22.997858 8.368214 -7.811800 0.000000 -71.219500 -2.520059 1.271525 -7.958609 -0.052514 1.574052 -4.136226 0.712436 1.457154 0.260080 -4.567647 -3.173240 -5.795146 -2.965235 -0.247499 0.534021 0.000000 0.000000 0.000000 9.847011 10.758730 -2.341345 -87.893729 -7.640666 23.750949 176.941489 -39.495310 179.608599 27.880317 -48.475404 -13.879909 -0.549207 2.770442 -0.000000 0.000000 0.000000 0.000000 0.000000 0.000000 0.000000 -7.312331 1.180504 0.247430 17.591848 32.596222 -32.672470 -1.243542 51.167997 -0.098540 -11.810214 -2.243353 0.185523 0.095235 -0.467648 -0.000000 0.000000 0.000000 0.000000 0.000000 0.000000 0.000000 
0.739021 17.390034 1.870782 6.881208 -47.471156 10.495578 -8.911212 2.218254 8.524682 -4.149889 -19.156315 -16.387627 -2.510049 -1.648979 -4.346550 -0.182237 1.831456 7.825284 1.075800 0.000000 -48.996900 11.389517 -2.597889 -2.265333 3.112478 -31.223886 -8.350589 1.803140 0.735000 1.178104 -3.542486 -23.002313 8.292007 -7.782200 0.000000 -71.315100 -2.584787 1.135056 -8.080013 -0.086466 1.438095 -4.168560 0.543514 1.325646 0.265235 -4.038906 -3.627538 -5.818318 -3.067433 -0.255354 0.528058 0.000000 0.000000 0.000000 10.306928 10.692750 -2.292442 -87.787917 -7.559179 23.788775 177.022581 -39.410357 179.613186 27.572368 -48.516588 -13.742638 -0.548768 2.787587 -0.000000 0.000000 0.000000 0.000000 0.000000 0.000000 0.000000 -6.472968 0.703538 -0.027587 19.670792 32.307644 -31.527490 -1.132600 55.537089 -0.096584 -11.602574 -2.660178 0.224787 0.080096 -0.466968 -0.000000 0.000000 0.000000 0.000000 0.000000 0.000000 0.000000 
